<svg width="30" height="30" viewBox="0 0 30 30" fill="none" xmlns="http://www.w3.org/2000/svg">
<path d="M21.8793 0H8.12073C3.64288 0 0 3.64288 0 8.12073V21.8795C0 26.3571 3.64288 30 8.12073 30H21.8795C26.3571 30 30 26.3571 30 21.8795V8.12073C30 3.64288 26.3571 0 21.8793 0V0ZM15 23.2029C10.4768 23.2029 6.7971 19.5232 6.7971 15C6.7971 10.4768 10.4768 6.7971 15 6.7971C19.5232 6.7971 23.2029 10.4768 23.2029 15C23.2029 19.5232 19.5232 23.2029 15 23.2029ZM23.399 8.73161C22.0624 8.73161 20.9752 7.64442 20.9752 6.30775C20.9752 4.97108 22.0624 3.88367 23.399 3.88367C24.7357 3.88367 25.8231 4.97108 25.8231 6.30775C25.8231 7.64442 24.7357 8.73161 23.399 8.73161Z" fill="white"/>
<path d="M15.0001 8.55585C11.4469 8.55585 8.55591 11.4466 8.55591 15C8.55591 18.5532 11.4469 21.4442 15.0001 21.4442C18.5535 21.4442 21.4442 18.5532 21.4442 15C21.4442 11.4466 18.5535 8.55585 15.0001 8.55585Z" fill="white"/>
<path d="M23.3991 5.64264C23.0325 5.64264 22.734 5.9411 22.734 6.30777C22.734 6.67444 23.0325 6.9729 23.3991 6.9729C23.766 6.9729 24.0645 6.67467 24.0645 6.30777C24.0645 5.94087 23.766 5.64264 23.3991 5.64264Z" fill="white"/>
</svg>
