<svg width="254" height="48" viewBox="0 0 254 48" fill="none" xmlns="http://www.w3.org/2000/svg">
<path d="M20.875 35.7188L31.1875 1.5H41.625L25.7812 47H16L0.21875 1.5H10.625L20.875 35.7188Z" fill="#E60E0E"/>
<path d="M51.0625 47H49.375V1.5H51.0625V47ZM94.1562 3.1875H77.5938V47H75.9062V3.1875H59.3438V1.5H94.1562V3.1875ZM134.344 27.6562C134.344 31.5938 133.635 35.0833 132.219 38.125C130.823 41.1458 128.823 43.4896 126.219 45.1562C123.615 46.8021 120.615 47.625 117.219 47.625C112.094 47.625 107.948 45.8021 104.781 42.1562C101.615 38.5104 100.031 33.5938 100.031 27.4062V20.8438C100.031 16.9271 100.729 13.4479 102.125 10.4062C103.542 7.36458 105.552 5.02083 108.156 3.375C110.781 1.70833 113.781 0.875 117.156 0.875C120.552 0.875 123.552 1.70833 126.156 3.375C128.781 5.02083 130.802 7.375 132.219 10.4375C133.635 13.4792 134.344 16.9479 134.344 20.8438V27.6562ZM132.656 20.7812C132.656 15.2812 131.26 10.875 128.469 7.5625C125.677 4.22917 121.906 2.5625 117.156 2.5625C112.469 2.5625 108.729 4.21875 105.938 7.53125C103.146 10.8229 101.75 15.3125 101.75 21V27.6562C101.75 31.2812 102.375 34.4896 103.625 37.2812C104.896 40.0521 106.698 42.1875 109.031 43.6875C111.365 45.1875 114.094 45.9375 117.219 45.9375C121.969 45.9375 125.729 44.2812 128.5 40.9688C131.271 37.6562 132.656 33.1354 132.656 27.4062V20.7812ZM199.355 24.4375H176.542V45.3125H202.542V47H174.855V1.5H202.542V3.1875H176.542V22.75H199.355V24.4375ZM213.699 1.5L232.417 44.5312L251.199 1.5H253.667V47H251.98V4L233.105 47H231.761L212.98 4.21875V47H211.292V1.5H213.699Z" fill="white"/>
<path d="M131.042 47V1.5H145.042C149.042 1.5 152.615 2.40625 155.761 4.21875C158.928 6.01042 161.397 8.57292 163.167 11.9062C164.938 15.2188 165.824 18.9896 165.824 23.2188V25.3125C165.824 29.5417 164.949 33.3021 163.199 36.5938C161.47 39.8854 159.022 42.4375 155.855 44.25C152.688 46.0625 149.115 46.9792 145.136 47H131.042ZM140.417 9.09375V39.4688H144.949C148.615 39.4688 151.417 38.2708 153.355 35.875C155.292 33.4792 156.282 30.0521 156.324 25.5938V23.1875C156.324 18.5625 155.365 15.0625 153.449 12.6875C151.532 10.2917 148.73 9.09375 145.042 9.09375H140.417Z" fill="#E50E0E"/>
</svg>
